<?xml version="1.0" encoding="utf-8"?>
<!-- Generator: Adobe Illustrator 24.3.0, SVG Export Plug-In . SVG Version: 6.00 Build 0)  -->
<svg version="1.1" id="Layer_1" xmlns="http://www.w3.org/2000/svg" xmlns:xlink="http://www.w3.org/1999/xlink" x="0px" y="0px"
	 viewBox="0 0 593 85" style="enable-background:new 0 0 593 85;" xml:space="preserve">
<style type="text/css">
	.st0{fill:#E6E6E6;}
</style>
<g>
	<path class="st0" d="M24.19,64.09H9.29c-5.79,0-9.77-4.74-8.73-10.53l0.95-5.6h7.02l-0.76,4.55c-0.47,2.66,1.04,5.22,4.18,5.22
		h11.77c3.61,0,6.17-3.13,6.55-5.69l2.28-12.91c0.38-1.99-1.04-3.89-3.32-3.89H13.18c-4.74,0-8.64-3.23-7.69-8.73L8.44,10
		C9.1,6.11,13.85-0.06,20.87-0.06h20.12c1.61,0,2.75,1.23,2.47,2.85l-2.09,11.77h-7.02l1.42-8.26H21.53c-3.42,0-5.98,2.75-6.36,5.31
		l-2.47,13.48c-0.38,2.18,0.66,3.8,4.37,3.8h17.08c4.37,0,6.64,3.7,5.88,7.59l-2.94,16.8C35.96,59.54,30.74,64.09,24.19,64.09z"/>
	<path class="st0" d="M66.89,64.38h-1.42c-7.21,0-10.82-4.18-13.95-4.18c-0.76,0-1.52,0.95-1.61,1.8L46.4,82.03
		c-0.28,1.61-1.8,2.94-3.32,2.94H30.83l1.14-6.36h7.97l9.39-53.14h-7.97l1.14-6.36h11.58c1.04,0,1.71,0.85,1.8,1.23l0.76,1.99
		c0.1,0.47,0.66,0.85,1.42,0.85c3.13,0,8.26-4.37,15.47-4.37h1.42c7.4,0,11.48,4.27,10.25,11.2l-4.08,23.15
		C79.89,60.2,74.3,64.38,66.89,64.38z M78,31.16c0.57-3.23-1.52-5.69-4.65-5.69H62.05c-3.13,0-6.17,2.47-6.74,5.69l-3.7,20.88
		c-0.47,3.13,1.61,5.69,4.74,5.69h11.29c3.13,0,6.17-2.56,6.64-5.69L78,31.16z"/>
	<path class="st0" d="M115.57,64.09c-0.85,0-1.61-0.66-1.9-1.33l-0.66-1.61c-0.38-0.95-0.76-0.95-1.52-0.95
		c-3.13,0-8.26,4.18-15.47,4.18H94.6c-8.16,0-11.29-5.03-10.25-11.2l1.14-6.45c1.14-6.17,6.07-11.2,14.23-11.2h1.42
		c7.21,0,10.82,4.36,13.95,4.36c0.76,0,1.42-0.76,1.61-1.71l1.14-6.64c0.66-3.7-0.95-6.07-5.03-6.07h-16.8
		c-1.61,0-2.75-1.04-2.47-2.66l0.19-1.04c0.28-1.61,1.8-2.66,3.32-2.66h19.36c5.88,0,9.77,5.03,8.83,10.44l-4.93,28.18h7.5
		l-1.14,6.36H115.57z M115.2,47.01c0.47-2.66-1.33-4.84-4.08-4.84H98.3c-2.75,0-5.31,2.18-5.79,4.84l-1.04,5.88
		c-0.47,2.66,1.33,4.84,4.08,4.84h12.81c2.75,0,5.31-2.18,5.79-4.84L115.2,47.01z"/>
	<path class="st0" d="M152.68,64.09h-13.85c-5.88,0-9.58-5.03-8.54-10.82l4.18-23.63c1.04-5.79,6.83-10.53,12.72-10.53h22.21
		l-2.09,11.77h-7.02l0.95-5.41H148.5c-4.55,0-6.74,2.66-7.4,6.17l-3.51,20.21c-0.85,4.46,1.8,5.88,5.31,5.88h9.39
		c3.13,0,5.6-2.56,6.07-5.22l0.28-1.71h7.02l-0.47,2.75C164.16,59.35,158.47,64.09,152.68,64.09z"/>
	<path class="st0" d="M201.45,44.45h-24.2l-1.33,7.5c-0.66,3.51,0.95,5.79,5.12,5.79h13.1c1.61,0,2.66,1.04,2.37,2.66l-0.19,1.04
		c-0.28,1.61-1.71,2.66-3.32,2.66h-15.94c-5.5,0-9.49-4.93-8.45-10.82l4.18-23.72c1.04-5.79,6.93-10.44,12.81-10.44h14.9
		c5.88,0,10.06,4.65,9.02,10.44l-1.61,9.2C207.15,42.83,204.39,44.45,201.45,44.45z M202.31,30.59c0.57-2.94-1.42-5.12-4.18-5.12
		H185.7c-2.75,0-5.5,2.18-6.07,5.12l-1.42,7.97h22.68L202.31,30.59z"/>
	<path class="st0" d="M251.08,64.09l1.14-6.36h6.74l7.97-45.08l-16.7,19.17c-0.57,0.66-1.42,1.33-2.47,1.33h-0.95
		c-1.04,0-1.52-0.66-1.9-1.33l-9.87-19.17l-7.97,45.08h6.74l-1.14,6.36h-21.73l1.14-6.36h7.97l9.02-51.43h-7.97l1.14-6.36h11.58
		c1.23,0,2.09,0.47,2.66,1.42l11.96,23.25l20.31-23.25c0.76-0.95,1.8-1.42,3.04-1.42h12.34l-1.14,6.36h-7.97l-9.01,51.43h7.97
		l-1.14,6.36H251.08z"/>
	<path class="st0" d="M307.35,64.09c-0.85,0-1.61-0.66-1.9-1.33l-0.66-1.61c-0.38-0.95-0.76-0.95-1.52-0.95
		c-3.13,0-8.26,4.18-15.47,4.18h-1.42c-8.16,0-11.29-5.03-10.25-11.2l1.14-6.45c1.14-6.17,6.07-11.2,14.23-11.2h1.42
		c7.21,0,10.82,4.36,13.95,4.36c0.76,0,1.42-0.76,1.61-1.71l1.14-6.64c0.66-3.7-0.95-6.07-5.03-6.07h-16.8
		c-1.61,0-2.75-1.04-2.47-2.66l0.19-1.04c0.29-1.61,1.8-2.66,3.32-2.66h19.36c5.88,0,9.77,5.03,8.83,10.44l-4.93,28.18h7.5
		l-1.14,6.36H307.35z M306.97,47.01c0.47-2.66-1.33-4.84-4.08-4.84h-12.81c-2.75,0-5.31,2.18-5.79,4.84l-1.04,5.88
		c-0.47,2.66,1.33,4.84,4.08,4.84h12.81c2.75,0,5.31-2.18,5.79-4.84L306.97,47.01z"/>
	<path class="st0" d="M348.35,64.09l1.14-6.36h6.74l4.65-26.57c0.57-3.13-1.52-5.69-4.65-5.69h-11.29c-3.13,0-6.17,2.56-6.74,5.69
		l-4.65,26.57h6.74l-1.14,6.36h-21.73l1.14-6.36h7.97l5.69-32.26h-7.97l1.14-6.36h11.48c1.33,0,1.71,0.76,1.9,1.33l0.67,1.71
		c0.28,0.85,0.66,1.04,1.42,1.04c3.13,0,8.35-4.37,15.56-4.37h1.42c7.4,0,11.48,4.27,10.25,11.2l-4.84,27.71h7.97l-1.14,6.36H348.35
		z"/>
	<path class="st0" d="M417.24,64.09l1.14-6.36h6.74l7.97-45.08l-16.7,19.17c-0.57,0.66-1.42,1.33-2.47,1.33h-0.95
		c-1.04,0-1.52-0.66-1.9-1.33l-9.87-19.17l-7.97,45.08h6.74l-1.14,6.36H377.1l1.14-6.36h7.97l9.01-51.43h-7.97l1.14-6.36h11.58
		c1.23,0,2.09,0.47,2.66,1.42l11.96,23.25l20.31-23.25c0.76-0.95,1.8-1.42,3.04-1.42h12.34l-1.14,6.36h-7.97l-9.02,51.43h7.97
		l-1.14,6.36H417.24z"/>
	<path class="st0" d="M477.59,64.09c-0.66,0-1.52-0.47-1.9-1.33l-0.57-1.71c-0.29-0.76-0.85-0.85-1.61-0.85
		c-3.13,0-8.16,4.18-15.47,4.18h-1.42c-6.64,0-11.48-4.18-10.25-11.2l4.93-27.71h-7.97l1.14-6.36h12.15c1.52,0,2.56,1.23,2.28,2.85
		l-5.31,30.08c-0.47,3.13,1.61,5.69,4.75,5.69h11.29c3.13,0,6.17-2.56,6.64-5.69l4.75-26.57h-7.97l1.14-6.36h12.15
		c1.52,0,2.56,1.23,2.28,2.85l-6.26,35.78h7.97l-1.14,6.36H477.59z"/>
	<path class="st0" d="M515.64,64.09h-15.66c-5.79,0-9.77-4.74-8.73-10.53l0.47-2.75h7.02l-0.29,1.71c-0.47,2.66,1.04,5.22,4.18,5.22
		h12.81c3.23,0,4.65-3.32,5.03-5.41l0.66-3.79c0.29-1.71-0.09-4.08-3.32-4.08h-15.18c-4.65,0-8.64-3.89-7.69-9.58l1.04-5.88
		c0.66-3.89,5.6-9.87,12.62-9.87h18.5c1.52,0,2.56,1.04,2.28,2.66l-1.61,9.11h-7.02l0.95-5.41H509.1c-3.51,0-5.79,1.99-6.26,4.84
		l-0.66,3.51c-0.38,2.18,0.95,4.75,4.37,4.75h14.9c4.46,0,7.97,2.85,7.02,8.54l-1.14,6.36C526.08,60.1,521.53,64.09,515.64,64.09z"
		/>
	<path class="st0" d="M527.03,64.09l1.14-6.36h7.97l5.69-32.26h-7.97l1.14-6.36h12.15c1.52,0,2.56,1.23,2.28,2.85l-6.26,35.78h7.97
		l-1.14,6.36H527.03z M548.57,10.85h-1.33c-1.61,0-2.66-1.23-2.37-2.85l0.95-5.22c0.28-1.61,1.71-2.85,3.32-2.85h1.33
		c1.52,0,2.66,1.23,2.37,2.85l-0.95,5.22C551.61,9.62,550.09,10.85,548.57,10.85z"/>
	<path class="st0" d="M576.47,64.09h-13.85c-5.88,0-9.58-5.03-8.54-10.82l4.18-23.63c1.04-5.79,6.83-10.53,12.72-10.53h22.21
		l-2.09,11.77h-7.02l0.95-5.41h-12.72c-4.55,0-6.74,2.66-7.4,6.17l-3.51,20.21c-0.85,4.46,1.8,5.88,5.31,5.88h9.39
		c3.13,0,5.6-2.56,6.07-5.22l0.29-1.71h7.02l-0.47,2.75C587.95,59.35,582.26,64.09,576.47,64.09z"/>
</g>
</svg>
